<svg width="214" height="219" viewBox="0 0 214 219" fill="none" xmlns="http://www.w3.org/2000/svg">
<g clip-path="url(#clip0_137_2)">
<rect width="214" height="219" rx="36" fill="white"/>
<path d="M0 0H214V219H0V0ZM56.2679 20.5885C47.4901 29.3103 40.2371 40.133 38.0459 52.4581C37.5717 55.9851 37.623 59.5884 36.5722 63.0262C31.2414 63.7901 26.1413 65.7891 21.5281 68.5266C15.8001 72.1681 11.5329 77.554 6.8685 82.3796C8.75222 93.9408 15.6207 105.235 26.5258 110.366C34.8295 115.128 44.7606 116.554 54.1663 115.128C58.1132 112.085 57.4212 105.909 52.9746 103.707C41.8774 104.547 29.5115 101.389 22.4764 92.2474C20.9515 90.172 18.8884 87.4217 20.0673 84.7606C27.2562 76.4463 38.8275 73.6451 49.4891 74.7147C48.8996 70.6275 47.9898 66.5658 48.0026 62.4277C47.7463 52.1016 52.4108 42.1702 59.0102 34.4034C59.92 33.041 61.6243 33.7413 62.957 33.754C71.5555 40.9097 77.386 51.3504 78.0908 62.5678C79.5901 69.9527 76.0405 77.0192 75.9508 84.3277C76.4634 85.1044 77.4757 86.6705 77.9883 87.4472C80.2308 87.6382 82.4733 87.5109 84.6902 87.1926C89.7134 77.8723 89.8928 66.7695 88.3038 56.558C85.946 41.7755 76.9375 28.0244 63.6874 20.7159C61.4962 19.5063 58.2798 18.4749 56.2679 20.5885ZM132.859 58.7353C132.731 97.5314 133.141 136.34 132.654 175.136C137.549 176.893 142.842 175.722 147.929 176.142C148.224 174.729 148.544 173.316 148.877 171.902C149.582 163.422 147.135 154.917 149.275 146.514C159.321 159.628 169.97 172.272 180.183 185.259C183.002 188.556 186.026 192.695 190.768 193.051C196.406 193.509 202.07 193.191 207.721 193.14C206.824 190.874 205.44 188.862 203.761 187.105C192.011 173.214 180.606 159.03 168.624 145.329C168.483 144.655 168.227 143.292 168.086 142.617C180.76 129.388 192.703 115.497 205.491 102.395C198.584 102.077 191.383 100.447 184.681 102.981C180.58 105.145 177.594 108.8 174.621 112.25C166.215 121.914 157.412 131.234 149.236 141.102C147.801 135.283 149.608 129.388 148.57 123.544C149.262 106.393 149.146 89.1661 148.16 72.0281C147.955 68.3229 145.264 65.4835 143.521 62.3768C141.842 61.3837 140.189 60.3523 138.575 59.2828C136.665 59.0791 134.769 58.9008 132.859 58.7353ZM113.702 75.9879C109.614 77.5795 106.193 80.5971 103.835 84.2513C101.144 89.5481 101.887 95.6724 101.797 101.415C99.2345 101.466 96.6716 101.517 94.1216 101.58C94.019 106.597 94.0319 111.626 94.0959 116.643C96.646 116.681 99.1961 116.719 101.746 116.758C101.861 134.698 101.682 152.651 101.836 170.604C101.938 177.021 102.784 183.909 107.09 189.015C111.549 194.744 119.494 195.598 126.273 195.763C126.401 190.237 126.491 184.724 126.286 179.198C122.723 178.931 120.558 175.913 118.764 173.214C118.469 171.495 118.136 169.789 117.687 168.121C117.085 150.995 117.521 133.845 117.444 116.707C119.609 116.681 121.788 116.668 123.966 116.656C124.043 111.626 124.056 106.61 123.953 101.593C121.775 101.58 119.609 101.58 117.444 101.58C117.341 93.0113 117.521 84.4423 117.29 75.8733C116.098 75.9115 114.894 75.9497 113.702 75.9879ZM70.825 101.606C70.7225 125.467 70.7866 149.327 70.7994 173.176C70.8507 176.219 70.6841 179.313 71.4786 182.292C73.8749 188.213 79.4235 193.866 86.3432 193.217C86.3432 162.913 86.1382 132.597 86.4457 102.293C81.4097 100.651 76.0149 101.759 70.825 101.606Z" fill="#F1592A"/>
</g>
<defs>
<clipPath id="clip0_137_2">
<rect width="214" height="219" rx="36" fill="white"/>
</clipPath>
</defs>
</svg>
